<svg width="14px" height="16px" viewBox="0 0 14 16" version="1.1" xmlns="http://www.w3.org/2000/svg" xmlns:xlink="http://www.w3.org/1999/xlink">
  <style>
    use:not(:target) {
      display: none;
    }
  </style>
  <defs>
    <g id="standard_icon" stroke="none" stroke-width="1">
      <path d="M7.0 2.16583509C7.0 2.16583509 2.0 4.24375717 2.0 4.24375717C2.0 4.24375717 2.0 7.27272727 2.0 7.27272727C2.0 10.2413541 4.13435329 13.0576771 7.0 13.9315843C9.8656467 13.0576771 12.0 10.2413541 12.0 7.27272727C12.0 7.27272727 12.0 4.24375717 12.0 4.24375717C12.0 4.24375717 7.0 2.16583509 7.0 2.16583509C7.0 2.16583509 7.0 2.16583509 7.0 2.16583509M7.0 0.0C7.0 0.0 14.0 2.90909091 14.0 2.90909091C14.0 2.90909091 14.0 7.27272727 14.0 7.27272727C14.0 11.3090909 11.0133333 15.0836364 7.0 16.0C2.98666667 15.0836364 0.0 11.3090909 0.0 7.27272727C0.0 7.27272727 0.0 2.90909091 0.0 2.90909091C0.0 2.90909091 7.0 0.0 7.0 0.0C7.0 0.0 7.0 0.0 7.0 0.0" />
    </g>
  </defs>
  <use id="standard" fill="context-fill" fill-opacity="context-fill-opacity" href="#standard_icon" />
</svg>
