<?xml version="1.0" encoding="UTF-8"?>
<svg width="16" height="16" xmlns="http://www.w3.org/2000/svg">
 <path d="M4 4h1.031c.255.011.51.129.688.313L8 6.592l2.312-2.28c.266-.231.447-.306.688-.313h1v1c0 .286-.034.55-.25.75L9.469 8.031l2.25 2.25c.188.188.281.454.281.719v1h-1c-.265 0-.53-.093-.719-.281L8 9.438l-2.281 2.28A1.015 1.015 0 015 12H4v-1c0-.265.093-.53.281-.719l2.281-2.25-2.28-2.281A.909.909 0 014 5z" color="#bebebe" fill="#2e3436" font-family="Andale Mono" font-weight="400" overflow="visible" style="text-decoration-line:none;text-indent:0;text-transform:none"/>
</svg>
